<?xml version="1.0" standalone="no"?>
<!DOCTYPE svg PUBLIC "-//W3C//DTD SVG 20010904//EN"
 "http://www.w3.org/TR/2001/REC-SVG-20010904/DTD/svg10.dtd">
<svg version="1.0" xmlns="http://www.w3.org/2000/svg"
 width="357.000000pt" height="363.000000pt" viewBox="0 0 357.000000 363.000000"
 preserveAspectRatio="xMidYMid meet">

<g transform="translate(0.000000,363.000000) scale(0.100000,-0.100000)"
fill="#000000" stroke="none">
<path d="M1754 3478 c-4 -7 -8 -59 -7 -115 l0 -103 -546 0 c-326 0 -572 -4
-611 -10 -126 -21 -234 -118 -260 -235 -8 -35 -10 -317 -8 -935 l3 -885 28
-57 c32 -64 87 -115 163 -150 49 -23 50 -23 632 -26 l582 -3 0 -249 0 -250
-254 0 c-146 0 -266 -4 -281 -10 -21 -8 -26 -16 -23 -38 l3 -27 607 -3 c597
-2 607 -2 618 18 8 15 6 24 -10 40 -19 19 -32 20 -300 20 l-280 0 0 250 0 249
583 3 c554 3 584 4 632 23 71 28 146 106 174 179 l21 58 -2 901 -3 902 -29 58
c-47 98 -142 158 -268 172 l-58 6 0 95 c0 53 -5 104 -10 115 -17 30 -50 22
-109 -26 l-54 -44 -57 45 c-31 24 -64 44 -74 44 -9 0 -39 -18 -65 -40 -26 -22
-53 -40 -61 -40 -8 0 -35 18 -61 40 -26 22 -56 40 -67 40 -11 0 -42 -18 -70
-40 -27 -22 -54 -40 -60 -40 -5 0 -32 18 -60 40 -27 22 -58 40 -68 40 -10 0
-43 -20 -74 -44 l-57 -45 -54 44 c-54 44 -91 56 -105 33z m350 -123 c32 -25
62 -45 66 -45 4 0 34 20 66 45 31 25 60 45 64 45 4 0 33 -20 64 -45 32 -25 62
-45 66 -45 4 0 34 20 66 45 31 25 60 45 64 45 4 0 33 -20 64 -45 32 -25 61
-45 64 -45 3 0 19 10 36 23 17 13 37 27 44 31 9 6 12 -149 12 -758 l0 -766
-480 0 -480 0 0 766 c0 609 3 764 13 758 6 -4 26 -18 43 -31 17 -13 35 -23 40
-23 5 1 34 21 64 45 30 25 58 45 61 45 3 0 32 -20 63 -45z m-361 -207 c2 -18
5 -332 6 -698 1 -612 2 -666 18 -677 13 -10 137 -13 539 -13 l523 0 15 22 c14
20 16 104 16 710 l0 688 33 0 c46 0 119 -23 157 -50 17 -12 44 -45 60 -73 l30
-52 0 -722 0 -723 -1370 0 -1370 0 0 718 0 718 25 51 c29 58 78 100 139 119
31 10 174 13 607 13 l567 1 5 -32z m1397 -1800 c-1 -119 -3 -138 -24 -178 -26
-52 -90 -105 -146 -120 -26 -7 -424 -9 -1222 -8 l-1185 3 -49 30 c-30 19 -60
49 -79 79 -29 48 -30 54 -33 188 l-4 138 1371 0 1371 0 0 -132z"/>
<path d="M1892 3088 c-18 -18 -14 -46 7 -58 11 -5 46 -10 79 -10 45 0 63 4 76
19 14 15 15 24 6 40 -9 18 -20 21 -83 21 -44 0 -78 -5 -85 -12z"/>
<path d="M2151 3082 c-7 -14 -6 -25 5 -40 15 -22 20 -22 270 -22 261 0 294 4
294 38 0 40 -14 42 -292 42 -250 0 -268 -1 -277 -18z"/>
<path d="M1892 2888 c-20 -20 -14 -47 11 -53 12 -3 51 -5 86 -3 71 3 97 22 72
52 -17 20 -150 23 -169 4z"/>
<path d="M2151 2881 c-7 -13 -7 -23 2 -35 11 -15 41 -16 287 -14 l275 3 3 24
c2 13 -2 28 -10 32 -7 5 -133 9 -280 9 -251 0 -268 -1 -277 -19z"/>
<path d="M1898 2699 c-21 -12 -23 -40 -6 -57 7 -7 41 -12 85 -12 64 0 74 2 84
22 10 18 8 24 -11 40 -25 20 -122 25 -152 7z"/>
<path d="M2160 2690 c-16 -16 -18 -25 -10 -40 10 -19 22 -20 278 -20 278 0
292 2 292 42 0 34 -34 38 -289 38 -239 0 -252 -1 -271 -20z"/>
<path d="M2222 2498 c-6 -6 -12 -20 -12 -29 0 -34 24 -40 165 -37 119 3 139 5
149 21 8 12 8 22 0 35 -10 15 -31 17 -150 20 -100 2 -143 -1 -152 -10z"/>
<path d="M2612 2498 c-33 -33 -2 -71 54 -66 43 4 65 28 48 56 -13 21 -84 28
-102 10z"/>
<path d="M1977 2442 c-10 -10 -17 -23 -17 -29 0 -5 -10 -15 -23 -22 -91 -48
-61 -199 42 -217 20 -4 42 -11 49 -17 19 -15 14 -55 -7 -67 -28 -14 -50 -3
-66 37 -12 29 -19 34 -42 31 -22 -2 -29 -9 -31 -30 -4 -35 23 -86 53 -100 13
-6 25 -20 27 -31 7 -47 69 -47 76 0 2 11 14 25 27 31 35 16 58 67 52 115 -7
50 -39 84 -96 101 -52 15 -71 37 -55 64 19 29 57 21 74 -15 18 -38 34 -47 61
-33 38 21 8 119 -40 135 -12 3 -21 12 -21 19 0 12 -31 46 -42 46 -3 0 -12 -8
-21 -18z"/>
<path d="M2222 2298 c-18 -18 -14 -46 7 -58 26 -13 256 -13 282 0 10 6 19 19
19 28 0 37 -20 42 -160 42 -92 0 -140 -4 -148 -12z"/>
<path d="M2610 2295 c-31 -37 23 -78 77 -59 56 19 36 74 -27 74 -21 0 -43 -7
-50 -15z"/>
<path d="M2217 2103 c-4 -3 -7 -17 -7 -29 0 -32 20 -35 174 -32 107 3 131 6
139 20 8 12 7 21 -2 32 -11 13 -38 16 -156 16 -78 0 -145 -3 -148 -7z"/>
<path d="M2609 2094 c-28 -34 26 -65 87 -50 28 7 34 50 8 60 -30 11 -82 6 -95
-10z"/>
<path d="M947 2806 c-90 -37 -150 -94 -194 -184 -25 -51 -28 -68 -28 -157 0
-88 3 -106 27 -155 38 -76 99 -137 177 -174 59 -28 76 -31 156 -31 77 0 98 4
147 27 303 142 280 574 -36 681 -74 25 -178 22 -249 -7z m249 -76 c54 -23 109
-73 141 -127 20 -34 27 -63 31 -118 4 -66 2 -80 -25 -138 -119 -253 -489 -209
-544 65 -45 224 186 410 397 318z"/>
<path d="M1121 2514 l-82 -67 -37 36 c-21 21 -45 37 -54 37 -22 0 -41 -26 -34
-47 7 -21 102 -123 114 -123 15 0 213 160 219 177 7 19 -9 47 -29 51 -8 2 -52
-27 -97 -64z"/>
<path d="M732 1988 c-15 -15 -15 -41 0 -56 17 -17 679 -17 696 0 18 18 14 46
-7 58 -29 15 -673 14 -689 -2z"/>
<path d="M724 1776 c-3 -8 -4 -23 -2 -33 3 -17 19 -18 223 -18 l220 0 0 30 0
30 -218 3 c-183 2 -218 0 -223 -12z"/>
</g>
</svg>
